# xmcd
#
# Track frame offsets:
#	150
#	12000
#	28185
#	41552
#	53434
#	65544
#	76764
#	89526
#	101011
#	113918
#	128338
#	142468
#	156098
#	166078
#
# Disc length: 2441 seconds
#
# Revision: 0
# Processed by: cddbd v1.4PL0 Copyright (c) Steve Scherf et al.
# Submitted via: dBpowerAMP V4.0
#
DISCID=ac09870e
DTITLE=Various Artist - Southern Gospel Jubilee
DYEAR=1998
DGENRE=Gospel
TTITLE0=Singing In The Heavenly Choir - The Kingdom Heirs
TTITLE1=Built On The Rock - The Talley Trio
TTITLE2=Til The work Is Done - Poet Voices
TTITLE3=Wake Up - The Kingsmen
TTITLE4=I Can Call Jesus - The Perry Sisters
TTITLE5=Glory To His Name - The McKameys
TTITLE6=Step Into the Water - Kirk Talley
TTITLE7=The Least I Can Do - The Isaacs
TTITLE8=The Truth Will Come Out - Perfect Heart
TTITLE9=We Ought To Praise Him - Squire parsons
TTITLE10=God Said You're Gonna Make It - The Specks
TTITLE11=Find Out What God Is Doing - The Hoppers
TTITLE12=I Wouldn't Take Nothing For My Journey Now - Anthony Burger
TTITLE13=Let Freedom Ring - Karen Peck and New River
EXTD=Submitted by Pablo Española
EXTT0=
EXTT1=
EXTT2=
EXTT3=
EXTT4=
EXTT5=
EXTT6=
EXTT7=
EXTT8=
EXTT9=
EXTT10=
EXTT11=
EXTT12=
EXTT13=
PLAYORDER=
